<svg xmlns="http://www.w3.org/2000/svg" viewBox="0 0 233.61 150.59"><defs><style>.cls-1{fill:#a1dee4;}</style></defs><g id="Layer_2" data-name="Layer 2"><g id="Layer_1-2" data-name="Layer 1"><g id="Beans"><path id="Path_97" data-name="Path 97" class="cls-1" d="M23.25,147.79c11.29-7.62,20.6-11,26.88-20.32s10.81-16.24,12-29.86a165.31,165.31,0,0,0-.21-27.16s.49-1.06-2.77-5.14c-1.63-2.05-1.06-.5-2.19-3.61a5,5,0,0,0-3.25-4.08s-1.84-.22-3-3.32c-.84-2.33-5.5-.63-5.5-.63s-1.55.56-3.95-1.2c-2.11-1-5.41,2-5.41,2s-.49,1.07-3.12,1.13-4.1,3.25-4.1,3.25a34.72,34.72,0,0,1-4.09,3.25c-.77.28-9.24,6-11.71,11.29S1.58,90.65.66,105,.05,120.2.05,120.2s.07,2.61,2.61,9.59S9.08,145,9.08,145,12,155.42,23.25,147.79Zm-.85-13.85S24.51,125.26,37,104a112.56,112.56,0,0,0,14.25-43C52,96.84,22.4,133.94,22.4,133.94ZM26.5,92c-1.91,6.82-11.21,39.23-11.21,39.23-.78-9.38,1.61-17.3,7.62-37s20.66-37.4,20.66-37.4C41.29,60.27,28.39,85.18,26.5,92ZM9.14,97.45c1.75-12,17.13-32.59,17.13-32.59S21,74.65,18.79,78.13s-8.11,15.55-7,31.52c.85,12-.48,30.06-.48,30.06-1.27-8.31-3.95-30.18-2.19-42.25Zm36.05,19.41C57.6,102.68,58.24,87.51,58.24,87.51c2.82,27.09-30.69,53.35-30.69,53.35s5.22-9.82,17.64-24Z"/><path id="Path_97-2" data-name="Path 97-2" class="cls-1" d="M98.36,123.19c23.74.42,40.44,4.9,58.73-2.12s31.69-12.37,47-30.63a287.63,287.63,0,0,0,26.88-39s1.76-1,1.19-10.12c-.27-4.55-1-1.77.48-7.33,0,0,2.51-3.8-.54-9.09,0,0-2.41-2.15-.92-7.71C232.3,13,224,10.78,224,10.78s-2.78-.75-4.45-5.67c-2-3.52-9.7-2.6-9.7-2.6S208,3.54,204.22,1s-9.1.54-9.1.54-7.7.92-9.09.54-19.21-.68-28,4.41-33.4,13.41-49.11,33-16,21-16,21S90.33,64.37,87,76.89s-6.09,28.19-6.09,28.19S74.61,122.79,98.36,123.19ZM111,102.55s11.7-10.27,50.79-28.1,63.36-47.12,63.36-47.12C190.36,79.17,111,102.56,111,102.56ZM158.83,46.8c-9.56,7.84-55.28,44.81-55.28,44.81,8.28-14.17,19.61-23.1,48-45.28S218.44,13.6,218.44,13.6C211.72,16.27,168.36,38.93,158.83,46.8ZM128.6,37.19c14.56-15.47,57.07-29.41,57.07-29.41s-17.27,8.76-24,11.47-27.15,14.08-41.53,38c-10.79,18-30.78,42.44-30.78,42.44,6.51-13.13,24.57-47,39.17-62.52Zm32,63.79c31.93-7.83,48-28.86,48-28.86-23.09,41.52-97.22,45.48-97.22,45.48s17.28-8.79,49.2-16.62Z"/></g></g></g></svg>