<svg xmlns="http://www.w3.org/2000/svg" width="118.405" height="78.935" viewBox="0 0 118.405 78.935">
  <g id="Icon" transform="translate(0 -0.004)">
    <path id="Path_100" data-name="Path 100" d="M45.91,53.4S19.815,60.176,9.184,24.209c0,0-2.9-16.7-9.184-23.974,0,0,40.111-4.169,51.714,22.932,0,0-4.837,9.9-4.837,18.241,0,0-6.765-20.847-22.709-27.623C24.167,13.785,43.01,25.252,45.91,53.4Z" fill="#214b5a"/>
    <path id="Path_101" data-name="Path 101" d="M98.38,77.993a160.207,160.207,0,0,1,3.38-16.7S86.777,14.9,135.592,2.917A123.112,123.112,0,0,1,167,.332S160.72,4.5,154.44,29.518s-20.3,39.094-44.463,36.488c0,0,.966-30.234,27.061-49,0,0-31.413,13.03-33.826,62.026Z" transform="translate(-48.599 -0.097)" fill="#062935"/>
  </g>
</svg>
