<svg xmlns="http://www.w3.org/2000/svg" viewBox="0 0 158.12 158.15"><defs><style>.cls-1{fill:#a1dee4;}</style></defs><g id="Layer_2" data-name="Layer 2"><g id="Layer_1-2" data-name="Layer 1"><g id="Circle"><path id="Path_55" data-name="Path 55" class="cls-1" d="M96.24,22.23l6.35-18.62A79,79,0,0,0,91.35,1L88.61,20.34A62.5,62.5,0,0,1,96.24,22.23Z"/><path id="Path_56" data-name="Path 56" class="cls-1" d="M126,42.54,141.6,30.77a78.78,78.78,0,0,0-12-12.43L117.39,33.83A61.81,61.81,0,0,1,126,42.54Z"/><path id="Path_57" data-name="Path 57" class="cls-1" d="M114.48,31.54,126.76,16A80,80,0,0,0,106.15,4.79L99.74,23.44a61.89,61.89,0,0,1,14.74,8.1Z"/><path id="Path_58" data-name="Path 58" class="cls-1" d="M71.35,142.66l-2.07,14.9a78.9,78.9,0,0,0,22.5-.47l-3-15A62.1,62.1,0,0,1,71.35,142.66Z"/><path id="Path_59" data-name="Path 59" class="cls-1" d="M84.94,19.77,87.67.49A78.78,78.78,0,0,0,64,1.42l3.79,18.73A61,61,0,0,1,84.94,19.77Z"/><path id="Path_60" data-name="Path 60" class="cls-1" d="M29.44,119.81l-11.87,8.94a79.47,79.47,0,0,0,11.3,11.31L38,128.5A62.08,62.08,0,0,1,29.44,119.81Z"/><path id="Path_61" data-name="Path 61" class="cls-1" d="M92.36,141.25l3.07,15.15,1.4-.33a79.63,79.63,0,0,0,15.68-5.4l-7.35-14.16A62.1,62.1,0,0,1,92.36,141.25Z"/><path id="Path_62" data-name="Path 62" class="cls-1" d="M108.39,134.81,115.78,149a78.77,78.77,0,0,0,22.87-18.14l-13.26-10.46A61.41,61.41,0,0,1,108.39,134.81Z"/><path id="Path_63" data-name="Path 63" class="cls-1" d="M127.71,117.46,141.12,128a79.78,79.78,0,0,0,7.6-11.62l-15.82-7.47A62.24,62.24,0,0,1,127.71,117.46Z"/><path id="Path_64" data-name="Path 64" class="cls-1" d="M137.45,65.21,156,60.93a79,79,0,0,0-12.15-27.19L128.23,45.5A61.73,61.73,0,0,1,137.45,65.21Z"/><path id="Path_65" data-name="Path 65" class="cls-1" d="M134.56,105.51,150.41,113A78.84,78.84,0,0,0,158,83.52l-18.48-.2A61.71,61.71,0,0,1,134.56,105.51Z"/><path id="Path_66" data-name="Path 66" class="cls-1" d="M138.28,68.82a62.08,62.08,0,0,1,1.27,10.78l18.57.21a79.68,79.68,0,0,0-1.35-15.26Z"/><path id="Path_67" data-name="Path 67" class="cls-1" d="M40.91,130.82,31.8,142.38a79.19,79.19,0,0,0,19.76,10.73l4.77-14A62.43,62.43,0,0,1,40.91,130.82Z"/><path id="Path_68" data-name="Path 68" class="cls-1" d="M21.36,55.8,6.13,48.56A78.74,78.74,0,0,0,0,78l16,.18A62.07,62.07,0,0,1,21.36,55.8Z"/><path id="Path_69" data-name="Path 69" class="cls-1" d="M15.91,81.94,0,81.78A80.35,80.35,0,0,0,2,96.51L17,93A60.79,60.79,0,0,1,15.91,81.94Z"/><path id="Path_70" data-name="Path 70" class="cls-1" d="M17.85,96.64l-15,3.46a78.8,78.8,0,0,0,12.44,25.71l11.92-9a61.58,61.58,0,0,1-9.38-20.2Z"/><path id="Path_71" data-name="Path 71" class="cls-1" d="M28.43,43.9,14.75,33.1A79.73,79.73,0,0,0,7.66,45.16L23,52.47a61.74,61.74,0,0,1,5.43-8.58Z"/><path id="Path_72" data-name="Path 72" class="cls-1" d="M59.85,140.34l-4.78,14A80.79,80.79,0,0,0,65.59,157l2.09-14.78A61.77,61.77,0,0,1,59.85,140.34Z"/><path id="Path_73" data-name="Path 73" class="cls-1" d="M63.8,21l.39-.09L60.43,2.25A78.73,78.73,0,0,0,42.79,8.77l8.59,16.5A61.22,61.22,0,0,1,63.8,21Z"/><path id="Path_74" data-name="Path 74" class="cls-1" d="M48.1,27,39.57,10.62A78.91,78.91,0,0,0,17,30.18L30.78,41.05A61.41,61.41,0,0,1,48.1,27Z"/></g></g></g></svg>