<svg xmlns="http://www.w3.org/2000/svg" viewBox="0 0 234.55 157.73"><defs><style>.cls-1{fill:#a1dee4;}</style></defs><g id="Layer_2" data-name="Layer 2"><g id="Layer_1-2" data-name="Layer 1"><g id="Cloud"><path id="Path_75" data-name="Path 75" class="cls-1" d="M233.14,110.91c-2.91-9.37-9-15.56-19.16-16.85a5.34,5.34,0,0,1-3.36-2.8,42.79,42.79,0,0,0-17-18.74c-2.71-1.67-3.24-3.39-3.19-6.39.13-6.78.66-13.77-.69-20.3C185.27,24.22,173,8.64,151.9,2.31,132.16-3.61,114.35,2.17,99,16c-4,3.58-7.29,8-10.9,12-12.55-8.47-23.16-5-32.94,11.08C50.55,37.75,45.89,35.8,41,35.13c-14.36-2-28.92,3.49-36.48,15.8C-5,66.56,1,86.74,17.57,97c10.08,6.21,21,7.74,32.74,5.91,2.65,22.41,22.29,36,43.84,23.45,10.88,9.78,23.41,12.12,37.32,7.18.68,1.07,1.21,1.89,1.72,2.73,15.38,25.65,47.36,27.1,65,11a6,6,0,0,1,4.83-1c9.64,2.67,17.5-.72,24-7.81C234.2,130.48,236.26,121,233.14,110.91ZM39.13,74a6.5,6.5,0,1,1,8-4.45,6.5,6.5,0,0,1-8,4.45Zm36.1,30.12a6.5,6.5,0,1,1,8-4.46,6.5,6.5,0,0,1-8,4.46Zm13-37.9a6.5,6.5,0,1,1,8-4.46,6.5,6.5,0,0,1-8,4.46Zm26.4-26.76a6.5,6.5,0,1,1,8-4.46A6.5,6.5,0,0,1,114.58,39.46Zm10.11,59.08a6.5,6.5,0,1,1,8-4.46,6.5,6.5,0,0,1-8,4.46Zm16.37-31.72a6.5,6.5,0,1,1,8-4.46A6.5,6.5,0,0,1,141.06,66.82Zm16.1-30.75a6.5,6.5,0,1,1,8-4.46A6.5,6.5,0,0,1,157.16,36.07Zm-5.59,99.3a6.5,6.5,0,1,1,8-4.45,6.5,6.5,0,0,1-8,4.45Zm21.19-37.61a6.5,6.5,0,1,1,8-4.46,6.5,6.5,0,0,1-8,4.46Zm19.75,32.71a6.5,6.5,0,1,1,8-4.46,6.51,6.51,0,0,1-8,4.46Z"/></g></g></g></svg>