<?xml version="1.0" encoding="utf-8"?>
<!-- Generator: Adobe Illustrator 24.1.3, SVG Export Plug-In . SVG Version: 6.00 Build 0)  -->
<svg version="1.1" id="Layer_1" xmlns="http://www.w3.org/2000/svg" xmlns:xlink="http://www.w3.org/1999/xlink" x="0px" y="0px"
	 viewBox="0 0 132.6 86.7" style="enable-background:new 0 0 132.6 86.7;" xml:space="preserve">
<style type="text/css">
	.st0{fill:#062935;}
	.st1{fill:#214B5A;}
</style>
<g id="Layer_1_1_" transform="translate(0.002 0)">
	<path id="Hand" class="st0" d="M0.6,49.8l24.5,6.9c0.2,0.1,0.5,0,0.6-0.3c0.8-1.7,4.5-7.8,13.2-0.1c0.2,0.2,0.6,0.2,0.8,0
		c0,0,0-0.1,0.1-0.1c0.9-1.5,3.9-5.4,10.3-3c1.7,0.7,2.8,2.8,3.3,3.7c0.1,0.3,0.5,0.4,0.7,0.3c0,0,0,0,0,0c1.9-1.2,8.5-4.4,13.4,2.9
		c0.5,0.8,0.9,1.6,1.2,2.4c0.1,0.2,0.2,0.4,0.5,0.4c1.5,0.2,7.3,1.1,9.2,6.5c0,0,0,0,0,0.1c0.6,2.1,0.3,4.5-1,6.3
		c-0.9,1.4,2.3,2.2,2.7,2.3c0,0,0.1,0,0.1,0c0.4,0,2.9-0.2,4.8-4.6c1-2.8,1.3-4.3-2.8-6.6c-2.8-1.5-2.5-1.5-2.5-2
		c0-0.8,2.2,0.1,2.5,0.2l0.1,0l8.3,4.5c0,0,0.1,0,0.1,0.1c0.3,0.2,2.4,1.9,4,0.2c1.7-1.7,2.9-3.8,3.5-6.1c0.3-0.9-0.2-1.9-1-2.3
		c-0.8-0.5-10.2-6.2-10.8-6.6l-0.1,0c-0.2-0.2-1.2-1-0.5-1.5c0.9-0.4,2-0.3,2.8,0.3c1,0.5,11.6,6.6,11.6,6.6
		c1.2,0.7,2.7,0.6,3.8-0.3c2-1.5,3-5.6,3-5.6s1-2.3-2-4c-2.9-1.7-11.6-6.5-12.1-6.8l-0.1,0c-0.2-0.1-1.3-1.1,0.5-1.8
		c2-0.8,11.1,5.6,11.1,5.6s4.6,3.3,6.8-0.3s1.5-2.5,2.3-4.8S100.6,33,100.6,33L75.1,18.8c-0.1-0.1-0.3-0.1-0.5,0
		c-2,0.9-3.5,2.8-3.8,5c-0.5,3.8-2.3,11.4-2.3,11.4s-1,5.3-7.3,4s-12.4-2.5-11.9-9.6s4.3-18.2,4.3-18.2s0-1.3,4.6-4l3.4-2.4
		c0.2-0.2,0.3-0.5,0.1-0.7c0-0.1-0.1-0.1-0.1-0.1c-1-0.6-2.1-1.1-3.2-1.3c-1-0.3-1.8,0-3.5,1.3S37.6,15.2,35.3,16.1
		c-0.1,0-0.2,0-0.3,0c-2-0.5-23.6-6.5-26.8-7.6C8,8.3,7.7,8.4,7.6,8.6C6.1,11-1.3,24.3,0.2,49.4C0.2,49.6,0.4,49.8,0.6,49.8
		L0.6,49.8z"/>
	<g id="Hand-2">
		<path id="Path_109" class="st1" d="M124.2,8.3l-23.8,6.1L77.1,0.7c0,0-3.3-1.5-5.8,0s-13.2,9.6-13.2,9.6s-2,1.3-3,7.1
			s-2,7.6-1.8,14.2c0.3,3,2.5,4.6,5.3,4.6s5.8,0.5,6.6-2.8c0.7-3,2.8-11.7,3.2-13.4c0-0.2,0.2-0.4,0.3-0.5l5.5-4
			c0.3-0.2,0.8-0.3,1.1-0.1l37.1,21.7c0,0,5.3,2.5,2.5,8.9s-5.6,5.8-5.6,5.8v4c0,0-0.3,0.8,1,0.5s21-5.8,21-5.8
			S136.8,25.7,124.2,8.3z"/>
		<path id="Path_110" class="st1" d="M59.7,80.4l7.8-13.2c0,0,1-1.8,3.8-0.8c3.2,1.2,4,3.3,4,3.3s1,1.3-0.5,4.6s-4,9.1-6.1,11.4
			s-6.6,0-6.6,0S57.4,84.2,59.7,80.4z"/>
		<path id="Path_111" class="st1" d="M48.3,73.8l7.6-14.2c0,0,0.3-1.3,3.3-1.3s4.8,1.3,6.6,4.3c0.3,1,0.5,0.8-0.5,2.5
			c-1,1.7-6.9,12-9.7,15.2c-0.3,0.3-0.7,0.4-1,0.2c-1.4-0.6-4.9-2.2-5.7-3C47.7,76.6,47.5,75,48.3,73.8z"/>
		<path id="Path_112" class="st1" d="M44.5,56.3l-7,10.7c-1,1.6-0.4,3.7,1.2,4.6c0.1,0.1,0.2,0.1,0.3,0.2c3.3,1.8,5.6,2.8,7.1,1
			s6.3-9.9,6.6-11.9s0.3-2-2.3-3.8c-1.5-1-3.2-1.4-5-1.3C45,55.8,44.6,56,44.5,56.3z"/>
		<path id="Path_113" class="st1" d="M26.5,60.1c0,0,2.3-4.3,4.8-4.3s4.6,0.3,6.8,4c1,2-3,6.3-3,6.3c-1.3,1.5-3.6,1.8-5.3,0.8
			C26.5,65.2,24.8,62.7,26.5,60.1z"/>
	</g>
</g>
</svg>
