<svg xmlns="http://www.w3.org/2000/svg" viewBox="0 0 208.14 214.64"><defs><style>.cls-1{fill:#a1dee4;}</style></defs><g id="Layer_2" data-name="Layer 2"><g id="Layer_1-2" data-name="Layer 1"><g id="Figure"><rect id="Rectangle_16" data-name="Rectangle 16" class="cls-1" x="106.4" y="18.32" width="9" height="181" transform="translate(-41.89 80.62) rotate(-34)"/><rect id="Rectangle_17" data-name="Rectangle 17" class="cls-1" x="7.85" y="103.52" width="197.53" height="8.36" transform="translate(-34.79 162.19) rotate(-66.36)"/><rect id="Rectangle_18" data-name="Rectangle 18" class="cls-1" x="12.72" y="100.34" width="190.58" height="8.36" transform="translate(-39.98 78.27) rotate(-34)"/><rect id="Rectangle_19" data-name="Rectangle 19" class="cls-1" x="99.45" y="12.44" width="8.36" height="181.48" transform="translate(-25.64 171.55) rotate(-72.75)"/><ellipse id="Ellipse_8" data-name="Ellipse 8" class="cls-1" cx="55.26" cy="26.34" rx="10.5" ry="11" transform="translate(-5.28 35.4) rotate(-34)"/><ellipse id="Ellipse_9" data-name="Ellipse 9" class="cls-1" cx="149.75" cy="10.85" rx="10.5" ry="11" transform="translate(19.54 85.59) rotate(-34)"/><circle id="Ellipse_10" data-name="Ellipse 10" class="cls-1" cx="194.19" cy="47.22" r="11"/><circle id="Ellipse_11" data-name="Ellipse 11" class="cls-1" cx="197.14" cy="132.07" r="11"/><ellipse id="Ellipse_12" data-name="Ellipse 12" class="cls-1" cx="165.42" cy="189.66" rx="10.5" ry="11" transform="translate(-77.77 124.92) rotate(-34)"/><ellipse id="Ellipse_13" data-name="Ellipse 13" class="cls-1" cx="63.98" cy="203.8" rx="10.5" ry="11" transform="translate(-103.02 70.62) rotate(-34)"/><circle id="Ellipse_14" data-name="Ellipse 14" class="cls-1" cx="22.58" cy="162.97" r="11"/><circle id="Ellipse_15" data-name="Ellipse 15" class="cls-1" cx="11" cy="74.28" r="11"/><circle id="Ellipse_16" data-name="Ellipse 16" class="cls-1" cx="108.53" cy="106.2" r="25"/></g></g></g></svg>