<svg xmlns="http://www.w3.org/2000/svg" viewBox="0 0 262.5 274.35"><defs><style>.cls-1{fill:#a1dee4;}</style></defs><g id="Layer_2" data-name="Layer 2"><g id="Layer_1-2" data-name="Layer 1"><g id="Flowers"><path id="Path_76" data-name="Path 76" class="cls-1" d="M73.88,0C77.94,2.58,82.11,5,86,7.77c4.24,3,8.34,6.18,12.37,9.4,5.21,4.18,7.17,9.68,6.23,16.28a92.08,92.08,0,0,1-3.79,15C99.5,52.7,98.15,57,96.7,61.22a4.31,4.31,0,0,0,.68,4.32,15.62,15.62,0,0,1,1.69,3.11,5.62,5.62,0,0,1,.17,1.68l-.33.17a6.06,6.06,0,0,1-1.08-.87c-1.14-1.51-2.2-3.07-3.33-4.58a1.67,1.67,0,0,0-.91-.72c-6.67-.43-11.2-3.89-14.66-9.13a43.4,43.4,0,0,1-7.28-27.5c.6-8.91,1.32-17.83,2-26.75a7.36,7.36,0,0,0,0-.81Z"/><path id="Path_77" data-name="Path 77" class="cls-1" d="M187.84,175a30.69,30.69,0,0,1,7-3.32c9.51-2.73,17.6,3.38,19.1,12.33,2.13,12.74-4.43,21.95-12.67,26.8a16.3,16.3,0,0,1-9.88,2.21c-3.3-.3-6.59-.67-9.89-1l-.15-.12-.09.05.15.12c2.61,4.74,3.88,9.94,4.86,15.19a24.1,24.1,0,0,1,.25,5.3,8.74,8.74,0,0,1-3.34,6.66c-3.68,3-7.68,5.3-12.45,6-.3,0-.61.06-.91.07-2.94.06-4.29-1-4.86-4.1l-.83,1a17.68,17.68,0,0,1-6.37,5.1,7.46,7.46,0,0,1-7.71-.78,14.77,14.77,0,0,1-5.64-9,46.34,46.34,0,0,1-1-12.37c.09-3.28.2-6.56.3-9.84a12.87,12.87,0,0,0-.15-1.51,9.49,9.49,0,0,0-1.5,1.47c-1.25,1.95-2.56,3.91-3.62,6a48.05,48.05,0,0,1-10.12,13.51c-3.61,3.31-7.3,3.72-11.44,1.05a26.21,26.21,0,0,1-5-4.09,81.37,81.37,0,0,1-6.09-7.27c-3.06-4.12-3.16-8.77-1.83-13.5a29.3,29.3,0,0,1,9.3-14.43,12.71,12.71,0,0,1,2.49-1.53l8.65-4.41a4.74,4.74,0,0,0,.92-.61c-3.41.75-6.43-.37-9.34-1.9a49.79,49.79,0,0,1-11.56-8.81c-1.46-1.42-2.87-2.9-4.21-4.43a11.39,11.39,0,0,1,.92-16,7.92,7.92,0,0,1,8-2c1.16.34,1.57.11,1.6-1.09a27.25,27.25,0,0,0-.25-3.94,6.39,6.39,0,0,1,2.25-5.64,18.61,18.61,0,0,1,10.67-4.68,7.11,7.11,0,0,1,5.55,1.84,34.5,34.5,0,0,1,5.85,5.92c3.34,4.83,6.31,9.9,9.4,14.89,1.11,1.79,2.15,3.63,3.26,5.43a11.66,11.66,0,0,0,1.13,1.31l.45-.12c0-2-.17-4-.16-6.05,0-3.5.1-7,.17-10.51a2.92,2.92,0,0,1,.24-1.24c3.41-7.1,8.29-12.74,15.77-15.73a21.72,21.72,0,0,1,10.67-1.35,7.91,7.91,0,0,1,5,2.84,27,27,0,0,1,5,8.78,50.85,50.85,0,0,1,3.66,21,12.75,12.75,0,0,1-1.78,6.31l-.27.35.13.1Zm-43.73,21.16c.47,3.9,1.88,7.16,5.13,9.41a7.47,7.47,0,0,0,8.49.54,26.23,26.23,0,0,0,10.15-9.87,14.21,14.21,0,0,0,1.32-3.46,4.21,4.21,0,0,0-.77-3.95,3.2,3.2,0,0,0-1.78-.9c-.91-.18-1.88,0-2.81-.15-1.28-.17-1.37-.48-.84-1.66.85-2,.6-2.9-1.31-3.82a5.67,5.67,0,0,0-2.79-.67c-3.18.21-6,1.59-8.78,3a1,1,0,0,0-.33.3c-1.51,2.29-3.16,4.49-4.46,6.89a18,18,0,0,0-1.25,4.25Z"/><path id="Path_78" data-name="Path 78" class="cls-1" d="M47.6,152.06c-1.12,3.18-2.17,6.38-3.38,9.52-2.07,5.37-4.28,10.68-7.86,15.23a14.35,14.35,0,0,1-1.44,1.58c-2.69,2.49-5.66,2.46-8.37-.1-2.31-2.19-3.39-5.13-4.15-8.15a24.91,24.91,0,0,1-.62-10.27,1.64,1.64,0,0,0-.09-.44,7.8,7.8,0,0,1-5.29.64c-4.16-.79-7.65-4.26-8-8.27a9.45,9.45,0,0,1,.68-4.17,65.9,65.9,0,0,1,10.17-16.56,42.5,42.5,0,0,1,3.35-3.75c1.17-1.13,2.49-2.1,3.78-3.17l-1.72-.24a31.45,31.45,0,0,1-9.27-2.54c-4.25-1.74-8.56-3.32-12.09-6.37a11.59,11.59,0,0,1-2.52-3,6.18,6.18,0,0,1,.83-7.2A18.64,18.64,0,0,1,11,99a4.19,4.19,0,0,1,4.75,1.58c-.5-1.64-1-3.28-1.48-4.93-.28-1-.57-2-.77-3-.65-3.5.86-6.24,3.13-8.62a21.08,21.08,0,0,1,9-5.51,4.94,4.94,0,0,1,3.88.7,31.2,31.2,0,0,1,8.27,7,80.07,80.07,0,0,1,11.46,16.28,7.49,7.49,0,0,0,1,1.68,24.63,24.63,0,0,0-.52-3.53c-1.83-6.28-1-12.46.53-18.6.24-.92.64-1.81.84-2.75.44-2.47,2.2-3.28,4.32-3.68a53.08,53.08,0,0,1,13.38-.55c2.88.18,5.73.57,8.59.89,3.31.37,5.37,2.48,6.87,5.24,2,3.71,1.82,7.65,1,11.6-1,5-3,9.52-4.8,14.14-1,2.65-2,5.33-3,8a2.94,2.94,0,0,0-.09,1.61,8.76,8.76,0,0,0,1.15-.85,22.54,22.54,0,0,1,8.21-5.63c4.4-1.64,8.9-2.54,13.58-1.69,3,.53,4.73,2.67,5.77,5.39a41.54,41.54,0,0,1,1.55,5.5,8,8,0,0,1-1.32,6.22A12.83,12.83,0,0,1,99.72,131a12.05,12.05,0,0,0,.78,2c2.86,4.77,2,9.28-.75,13.68a7.24,7.24,0,0,1-5.32,3.07,21.58,21.58,0,0,1-13.3-1.89,8.91,8.91,0,0,1-.93-.57c-.28-.18-.54-.39-1-.74.76,1.69,1.39,3.16,2,4.57,1.61,3.55,3,7.15,3,11.12a9.81,9.81,0,0,1-5.7,9.35c-2.82,1.44-5.67,2.1-8.72,1a1.38,1.38,0,0,0-1.18.59,29.16,29.16,0,0,0-1.37,2.74c-1.72,3.64-3.31,4.69-7.87,3.61-4.19-1-7-3.86-8.72-7.76-2.51-5.57-3.06-11.47-2.92-17.47,0-.73,0-1.46-.07-2.21v-.22Zm6.75-33.83-.09-.18c-2,1.36-4.12,2.68-6.14,4.09-3.45,2.43-4,5.89-3.12,9.77a4.59,4.59,0,0,0,3,3.53c2.4.77,4.8,1.48,7.23,2.17a5.54,5.54,0,0,0,6.42-2.07A27,27,0,0,0,64.92,130a8.81,8.81,0,0,0-1.38-9.32c-1.64-2.07-3.6-3.49-6.38-3.07-1,.15-1.89.41-2.81.61Z"/><path id="Path_79" data-name="Path 79" class="cls-1" d="M168.05,71.14c1.25-.64,2.5-1.28,3.79-1.8,6.15-2.41,11.5-.24,14.38,5.72A21.31,21.31,0,0,1,188,88.51c-1.08,5.89-4.2,8.49-10.47,8.89-4.52.29-8.84-.88-13.14-2.08q-1.8-.5-3.6-.87a3.2,3.2,0,0,0-.92.13,3.31,3.31,0,0,0,.3,1c1.49,2.15,3.09,4.22,4.47,6.42a17.75,17.75,0,0,1,2.59,7.1c.61,4.67-1.59,8-5.32,10.06-4.63,2.51-9.63,3-14.79,2.33-4.46-.54-7.18-3.08-8-7.35-.61-3-1-5.93-1.42-8.91-.15-1-.21-2.14-.4-3.23-.22-1.35-.53-1.47-1.84-1.12-3.46.94-6.84,2-10.39,2.71a17.59,17.59,0,0,1-10.49-.77c-4.8-2-7.09-6-7.46-11a17.07,17.07,0,0,1,2.72-10.58c2.56-4,4.55-4.56,8.56-3.85,1.32.23,2.65.44,4,.61a1.2,1.2,0,0,0,1-.32c.13-.07-.08-.6-.24-.86-1.86-2.94-4.46-5.21-6.9-7.63a64.5,64.5,0,0,1-5.1-5.61A6.74,6.74,0,0,1,110,57c1-2.84,2.18-5.6,5-7.09a60.73,60.73,0,0,1,13.27-5.12,3.5,3.5,0,0,1,4.27,1.64c1.17,1.91,2.24,3.88,3.41,5.8a24.92,24.92,0,0,0,2.37,3.49c1.54,1.77,3.35,1.79,4.64-.12a23.81,23.81,0,0,0,2.28-5.35c.67-2,1.2-4,2.82-5.49,2.11-2,4.71-2.4,7.48-2a9,9,0,0,1,5.16,2.07,3.84,3.84,0,0,1,1.21,3.44,9.24,9.24,0,0,0-.1,1.18c.05,1,.45,1.24,1.35.82a5,5,0,0,1,1.44-.47c4.25-.65,8.18,0,11.3,3.22A5.67,5.67,0,0,1,177.23,58c-.59,3.84-2.74,6.82-5.37,9.47-1.21,1.24-2.58,2.32-3.86,3.45Zm-27.33,13a9.38,9.38,0,0,0,.65,1c2.15,3,4.13,3.27,6.93.85.32-.28.62-.6.94-.9,3-2.85,2.78-6.3,1.8-9.89a3.1,3.1,0,0,0-1-1.36,9,9,0,0,0-6.45-2.11,5.56,5.56,0,0,0-5.3,5.8c0,.16,0,.32,0,.48a15.89,15.89,0,0,0,2.43,6.14Z"/><path id="Path_80" data-name="Path 80" class="cls-1" d="M71.4,217.5l-.33,1.11a93.71,93.71,0,0,1-9.37,22.88c-3,5.06-7.3,8.95-11.78,12.61a278.29,278.29,0,0,1-28.37,20,5.1,5.1,0,0,1-.57.29,3.83,3.83,0,0,1,.1-.59,291.05,291.05,0,0,1,14.21-36.07c4.38-9,11-15.72,19.32-21,4.43-2.79,9-5.28,13.56-7.93a2.39,2.39,0,0,0,1-1.29c1.57-5.53,3-11.1,4.65-16.61a18.43,18.43,0,0,1,2.13-4.17,1.41,1.41,0,0,1,2.73.48,4.77,4.77,0,0,1-.12,2.43,14.68,14.68,0,0,1-1.48,3c-2.32,3.75-3,8-3.87,12.22a56.29,56.29,0,0,1,20.34,14.33c4.93,5.45,8.13,11.87,10.5,18.73a102.5,102.5,0,0,1,5.34,29.54c0,.29,0,.57,0,1-.38-.28-.67-.5-.93-.72a212.33,212.33,0,0,1-21.93-20.58c-3.67-4.09-6.06-8.9-8.24-13.83-2.31-5.22-4.44-10.53-6.64-15.8Z"/><path id="Path_81" data-name="Path 81" class="cls-1" d="M246.45,85.27a5.87,5.87,0,0,0-.39.58,89.73,89.73,0,0,1-21.25,28.51c-6.48,5.68-14.12,8.32-22.62,8.81-5.47.27-11,.38-16.37,1.71l-13.55,3.54a15,15,0,0,1-2.67.39c-.31,0-.65-.25-1-.39.2-.33.34-.8.64-.94a33.25,33.25,0,0,1,3.44-1.43c5.94-2.21,11-5.56,14.55-11a57.11,57.11,0,0,0,3.06-5.92c1.84-3.75,3.89-7.39,7.35-9.81a70.38,70.38,0,0,1,8.43-5c12.25-6.24,25.43-8.68,39.06-9A7.94,7.94,0,0,1,246.45,85.27Z"/><path id="Path_82" data-name="Path 82" class="cls-1" d="M204.57,144.44c-3.54-.95-7.4-1.16-9.53-5.25a9.76,9.76,0,0,1,2.58-.32,14.9,14.9,0,0,1,3.13.89c1.22.5,2.35,1.05,3.54,1.56a7.62,7.62,0,0,0,6.12,0c9.63-3.78,19.38-3.48,29.14-.5a38,38,0,0,1,16.93,10,25.48,25.48,0,0,1,6,9.74c-.51.16-1,.33-1.41.44a101.14,101.14,0,0,1-36.69,2,23.09,23.09,0,0,1-14.56-7.06A20,20,0,0,1,204.57,144.44Z"/><path id="Path_83" data-name="Path 83" class="cls-1" d="M59.44,192a40.58,40.58,0,0,1-1.86,3.88c-5.12,8.49-12.26,14.49-21.87,17.31a18.48,18.48,0,0,1-8.16.64c-3.07-.49-4.74-2.47-5.66-5.22-.85-2.53,0-4.66,1.8-6.52A26.76,26.76,0,0,1,32,196.69a53.23,53.23,0,0,1,24-5.15c.82,0,1.65.11,2.47.18A5.29,5.29,0,0,0,59.44,192Z"/><path id="Path_84" data-name="Path 84" class="cls-1" d="M73.39,63.51c-1.27,0-2.37,0-3.44-.13-10-1.45-18.27-5.8-24.11-13.87a14.76,14.76,0,0,1-2.77-6.45c-.43-2.71.86-4.7,2.94-6.36A6,6,0,0,1,52.27,36a22.58,22.58,0,0,1,6.93,4.79A48.65,48.65,0,0,1,72,59.34,42.55,42.55,0,0,1,73.39,63.51Z"/></g></g></g></svg>