<svg xmlns="http://www.w3.org/2000/svg" viewBox="0 0 1921 80.53"><defs><style>.cls-1{fill:#fff;}</style></defs><g id="Layer_2" data-name="Layer 2"><g id="Layer_1-2" data-name="Layer 1"><path id="Subtraction_1" data-name="Subtraction 1" class="cls-1" d="M1921,80.53H0V48.43c.13,0,14.41,1.74,41.9,4.3,25.3,2.36,67.19,5.91,123.11,9.46,62.88,4,130.32,7.17,200.46,9.45,87.67,2.86,179.84,4.3,273.92,4.3h.1c85.09,0,173.12-1.18,261.63-3.53,98.68-2.61,200.28-6.72,302-12.21,54.6-3,110.31-6.35,165.56-10.12,57.74-3.94,116.61-8.38,175-13.2,60.83-5,122.8-10.62,184.18-16.6,63.82-6.21,128.8-13,193.16-20.28V80.53Z"/></g></g></svg>