<svg xmlns="http://www.w3.org/2000/svg" viewBox="0 0 142.57 124.35"><defs><style>.cls-1{isolation:isolate;}.cls-2{fill:#90cbd2;}</style></defs><g id="Layer_2" data-name="Layer 2"><g id="Layer_1-2" data-name="Layer 1"><g id="_H_" data-name=" H " class="cls-1"><g class="cls-1"><path class="cls-2" d="M32.67,29.83c1,3.55.21,5-3.4,7.64-6.44,4.39-10.35,12-12,23.78s-1.36,26.63.93,35.16A25.28,25.28,0,0,0,28.55,111c2.5,1.74,3.23,2.56,3.64,4.1.89,3.31-1.85,8.24-5,9.09-1.54.42-3.3,0-5.88-1.59-9.68-5.78-15.76-13.8-18.74-24.93C-2,80.63-.25,57.06,6.72,42.37c3.39-7.25,7.35-11.87,13.36-15.51a25,25,0,0,1,5.54-2.5C29.06,23.44,31.47,25.33,32.67,29.83Z"/><path class="cls-2" d="M78.77,49.83,78.69,42l-.08-10.26v-7.1c.17-5.5.45-6.34,2.7-6.95a43,43,0,0,1,12.3-.5c2.15.44,3.6,1.57,4,3.23.76,2.84,1.16,50.7.59,69.89-.16,6-.74,6.67-5.72,8-8,2.15-12.75,1.64-13.64-1.68-.38-1.42-.42-10.54,0-28,.1-3,.06-3.57.09-6.75l-.45,1.64c-.22,1.07-.44,2.15-.69,3.1-2,6.76-2.58,7.42-6.63,8.38l-5.69,1.53c.14,2.88.22,4.13.33,10.69,0,3.19,0,5.83.16,7.7.23,6,.07,7.35-.56,8.78a5.42,5.42,0,0,1-4,3.11,30,30,0,0,1-10.22.7c-2.89-.36-3.94-1-4.32-2.39s-.41-3.44-.59-14.06c.07-2.55,0-5.2-.08-7.84l.09-1.55c-3.35.26-4.73-.64-5.4-3.12C40,75,40.31,65,41.58,62.59c.66-1.32,1.43-1.78,4.74-2.67l0-1.13c.07-1.16.11-2.43.15-3.71.07-8.27.66-22.14.95-24.37A5.81,5.81,0,0,1,52,25.55a29.09,29.09,0,0,1,10-.26,4.91,4.91,0,0,1,4.4,3.64c.35,1.3.35,1.3,0,7.73l-.24,6.66-.26,9.46-.11,1.94,13-3.11Z"/><path class="cls-2" d="M121.33,1.74a39.48,39.48,0,0,1,18.73,24.93C144.6,43.6,142.84,67.3,136,82c-4.19,9-11.68,16.08-18.9,18-3.44.92-5.85-1-7-5.47-1-3.55-.21-5,3.4-7.64,6.44-4.39,10.24-12,11.91-23.75s1.36-26.63-.92-35.16A25.34,25.34,0,0,0,114,13.34c-2.53-1.86-3.22-2.56-3.64-4.1-.89-3.31,1.85-8.23,5-9.09C117-.26,118.74.15,121.33,1.74Z"/></g></g></g></g></svg>