<svg xmlns="http://www.w3.org/2000/svg" viewBox="0 0 211.31 205.38"><defs><style>.cls-1{fill:#a1dee4;}</style></defs><g id="Layer_2" data-name="Layer 2"><g id="Layer_1-2" data-name="Layer 1"><g id="Tree"><path id="Path_85" data-name="Path 85" class="cls-1" d="M128,201.65l12.94-2.75a2.16,2.16,0,0,0,1.72-2.52s0-.07,0-.1c-3.21-15.09-12.71-49.15-12.71-49.15,16.32-8,27.76-28.46,30.7-35.83s7.3-39.88-4.13-19.42S121,126.46,121,126.46c-8.71-41-20.09-52.08-20.09-52.08-3.07-3.86-4.31.91-4.31.91s-5.91,14.8,2.8,55.76c0,0-27.71-3.12-46.48-17.16s-1.56,13.86,4.13,19.41,24.45,19.59,42.62,20.24c0,0,5.19,35,8.4,50.06a2.16,2.16,0,0,0,2.51,1.74l.11,0Z"/><path id="Path_86" data-name="Path 86" class="cls-1" d="M53.73,178.07s-4.86-35.24,12.91-28.58c16.13,6,22.75,16.71,22.75,16.71,7.54,8.49,8.9,24,3.34,32.33a25.52,25.52,0,0,0-.58-3.37,40.26,40.26,0,0,0-3.55-9.73,45,45,0,0,0-5.71-8.61A31.48,31.48,0,0,0,75.16,170l4.94,8.78c1.63,2.87,3.11,5.76,4.59,8.65s2.87,5.82,4.17,8.81c.7,1.51,1.32,3,2,4.59a11.69,11.69,0,0,1-5,2.88,36,36,0,0,1-6.91,1.16c-1.72-2.76-3.4-5.54-5.06-8.3-1.84-3.06-3.64-6.14-5.39-9.28s-3.39-6.35-5.34-9.6a37.54,37.54,0,0,0,2.2,11A52.29,52.29,0,0,0,70,198.85a61.32,61.32,0,0,0,4.07,5.91C55.33,202.36,53.73,178.07,53.73,178.07Z"/><path id="Path_87" data-name="Path 87" class="cls-1" d="M17.84,137.69s13.3-26.64,22.43-13.63c8.28,11.8,7.81,22.33,7.81,22.33,1.17,9.44-5.27,20.81-13,23.91a22.43,22.43,0,0,0,1.19-2.59,33.52,33.52,0,0,0,2.2-8.35,36.81,36.81,0,0,0,.14-8.65,26.65,26.65,0,0,0-2.08-8.38l-.78,8.4c-.26,2.74-.58,5.45-.94,8.14s-.77,5.38-1.29,8.06c-.23,1.38-.53,2.73-.83,4.12a9.86,9.86,0,0,1-4.85-.41,30,30,0,0,1-5.3-2.46c.1-2.75.24-5.46.44-8.13.18-3,.39-6,.68-9s.66-6,.85-9.16a31.27,31.27,0,0,0-3.68,8.64,42.77,42.77,0,0,0-1.54,9.26,48.21,48.21,0,0,0,0,6C7.43,155.24,17.84,137.69,17.84,137.69Z"/><path id="Path_88" data-name="Path 88" class="cls-1" d="M32.7,103.66Q26,96.76,19.85,89.37A147.22,147.22,0,0,1,8.35,73.79a147.61,147.61,0,0,1,15.22,12q7.21,6.38,13.87,13.28c1.75,1.81,3.45,3.65,5.14,5.5a17.17,17.17,0,0,0,1.15-2.21C55.34,61.55,0,66.54,0,66.54c-1.47,56.67,34.28,44.56,34.28,44.56a10.81,10.81,0,0,0,4-1.82C36.43,107.43,34.54,105.57,32.7,103.66Z"/><path id="Path_89" data-name="Path 89" class="cls-1" d="M50.74,62.89q-5-6.91-9.55-14.22A132.53,132.53,0,0,1,33,33.46,132.9,132.9,0,0,1,44.93,46q5.57,6.57,10.58,13.47c1.31,1.77,2.58,3.64,3.85,5.49a15.59,15.59,0,0,0,1.29-1.81C76,28.54,26.57,26,26.57,26,18.16,75.86,51.25,69.66,51.25,69.66A9.45,9.45,0,0,0,55,68.55C53.57,66.69,52.13,64.8,50.74,62.89Z"/><path id="Path_90" data-name="Path 90" class="cls-1" d="M66.68,109.4q.42-8.07,1.45-16.08a123.67,123.67,0,0,1,3-16,125.78,125.78,0,0,1,1.32,16.22q.19,8.14-.24,16.15c-.13,2.07-.3,4.15-.45,6.3a15.88,15.88,0,0,0,2-.55c31.76-16.19-2.92-47.38-2.92-47.38C35.14,99.57,63,114.67,63,114.67a8.86,8.86,0,0,0,3.37,1.44C66.5,113.88,66.57,111.65,66.68,109.4Z"/><path id="Path_91" data-name="Path 91" class="cls-1" d="M183.29,150.51s-9.85-34.15-23.38-20.86c-12.27,12.07-14,24.52-14,24.52-3.44,10.83,1.64,25.57,10.1,30.89a31.27,31.27,0,0,1-.84-3.3,40.25,40.25,0,0,1-.74-10.33,45.12,45.12,0,0,1,1.69-10.19,32.11,32.11,0,0,1,4.27-9.38l-.93,10c-.32,3.28-.5,6.53-.67,9.76s-.26,6.49-.23,9.75c0,1.66,0,3.32,0,5a11.5,11.5,0,0,0,5.78.57,34.65,34.65,0,0,0,6.78-1.75c.44-3.22.86-6.43,1.24-9.63.45-3.55.84-7.09,1.15-10.67s.52-7.19,1-10.94A37.38,37.38,0,0,1,177,164.93a52.53,52.53,0,0,1-.21,11.21,60.15,60.15,0,0,1-1.31,7C191.72,173.35,183.29,150.51,183.29,150.51Z"/><path id="Path_92" data-name="Path 92" class="cls-1" d="M199.65,99s-23-18.93-26-3.33c-2.77,14.16,1.95,23.58,1.95,23.58,2.76,9.1,13.25,16.87,21.62,16.54a22.6,22.6,0,0,1-2.15-1.88,33.54,33.54,0,0,1-5.35-6.75,37,37,0,0,1-3.65-7.84,26.45,26.45,0,0,1-1.5-8.5l4.13,7.35c1.34,2.4,2.74,4.74,4.16,7.06s2.89,4.6,4.46,6.84c.77,1.16,1.6,2.27,2.44,3.42a9.73,9.73,0,0,0,4.26-2.35,28.79,28.79,0,0,0,3.84-4.41c-1.21-2.47-2.44-4.88-3.71-7.24-1.38-2.66-2.79-5.3-4.27-7.92s-3.05-5.2-4.51-8a31.63,31.63,0,0,1,6.89,6.38,43.93,43.93,0,0,1,5.17,7.84,47.89,47.89,0,0,1,2.42,5.49C216.29,110.82,199.65,99,199.65,99Z"/><path id="Path_93" data-name="Path 93" class="cls-1" d="M172.23,74q3.3-9,5.93-18.28a149.13,149.13,0,0,0,4.15-18.92,148.16,148.16,0,0,0-9,17.14q-4,8.76-7.26,17.78c-.86,2.36-1.66,4.73-2.45,7.1a16.2,16.2,0,0,1-2-1.54C134.41,44.73,187,26.79,187,26.79c24.4,51.16-13.14,54.64-13.14,54.64a10.69,10.69,0,0,1-4.4,0C170.34,79,171.32,76.48,172.23,74Z"/><path id="Path_94" data-name="Path 94" class="cls-1" d="M139.15,44.09q1.78-8.37,2.93-16.88A132.43,132.43,0,0,0,143.39,10a132.52,132.52,0,0,0-5.85,16.27q-2.41,8.25-4.18,16.62c-.47,2.14-.88,4.37-1.28,6.58a15.34,15.34,0,0,1-1.92-1.13C102.1,23,146.22.58,146.22.58c28,42.1-4.78,49.9-4.78,49.9a9.41,9.41,0,0,1-3.9.52C138.11,48.71,138.65,46.4,139.15,44.09Z"/><path id="Path_95" data-name="Path 95" class="cls-1" d="M143.51,93.06q-3.67-7.2-7.86-14.1a126.84,126.84,0,0,0-9.27-13.37A124.54,124.54,0,0,0,131.8,81q3.13,7.52,6.8,14.64c1,1.85,2,3.68,3,5.58a14.36,14.36,0,0,1-2.07.31C103.9,99.64,122.89,57,122.89,57,168.36,71.25,149,96.39,149,96.39a8.88,8.88,0,0,1-2.55,2.7C145.5,97.08,144.53,95.07,143.51,93.06Z"/><path id="Path_96" data-name="Path 96" class="cls-1" d="M91.67,56.79c-1.71-7.27-3.18-14.65-4.33-22a173.42,173.42,0,0,1-2.19-22.52,173,173,0,0,1,8.08,21.14c2.27,7.14,4.23,14.36,6,21.63.68,2.85,1.27,5.72,1.83,8.6a20.91,20.91,0,0,0,2.47-1.55C139.57,28.11,81.08,0,81.08,0c-35.35,56,7.76,65.23,7.76,65.23a12.14,12.14,0,0,0,5.11.54C93.18,62.81,92.37,59.81,91.67,56.79Z"/></g></g></g></svg>