<svg xmlns="http://www.w3.org/2000/svg" viewBox="0 0 436.27 252.29"><defs><style>.cls-1{fill:#ff9790;}.cls-2{fill:#fff;}.cls-3{isolation:isolate;}.cls-4{fill:#062935;}</style></defs><g id="Layer_2" data-name="Layer 2"><g id="Layer_1-2" data-name="Layer 1"><g id="Vorm"><path class="cls-1" d="M411.56,66.93c-60.16-46.11-111.8-47-191-48.76C57.16,14.43,33.74,75.22,25,81.19-2.08,107.48-2.5,162.75,33.2,181.67c23.65,12.54,80.27,35.73,158.58,39.46L244,248.22v0h0l.08,0,0,0,33.76,4-49.44-25.67-3.71-5.11a477.92,477.92,0,0,0,102-13.77C410.73,182.92,472.9,127,411.56,66.93Z"/><path class="cls-2" d="M399.93,48.93C340.68,2.82,289.83,1.94,211.82.17c-160.9-3.74-184,57.05-192.6,63C-7.43,89.48-7.84,144.75,27.31,163.67c23.25,12.52,78.86,35.64,155.76,39.44l94.78,49.18-36.37-50.16a469.18,469.18,0,0,0,74.92-12.39C399.11,164.92,460.34,109,399.93,48.93Z"/></g><g id="Vanaf_8_juli_in_de_winkel_" data-name="Vanaf 8 juli in de winkel " class="cls-3"><g class="cls-3"><path class="cls-4" d="M84.82,69h6.84L96.3,81.7c1,2.6,1.92,5.28,2.8,7.88h.08c.92-2.64,1.88-5.24,2.88-7.92L106.82,69h6.52l-11,29H95.9Z"/><path class="cls-4" d="M123.5,96.74A9.58,9.58,0,0,1,118,98.38a8,8,0,0,1-4.56-1.28,5.37,5.37,0,0,1-2.32-4.6,5.61,5.61,0,0,1,2.4-4.76,9.72,9.72,0,0,1,5.52-1.4,15.81,15.81,0,0,1,3.4.36v-.76a2.77,2.77,0,0,0-.76-2.08,4.52,4.52,0,0,0-3-.84,12.29,12.29,0,0,0-5.76,1.56V79.34a15.65,15.65,0,0,1,6.88-1.52,10.39,10.39,0,0,1,6.56,1.88c1.48,1.2,2.2,3,2.2,5.44v6.68c0,.92.36,1.56,1.2,1.56a2.29,2.29,0,0,0,1-.24V97.7a6.61,6.61,0,0,1-2.92.6,5.76,5.76,0,0,1-4.24-1.56Zm-1-6.52a8,8,0,0,0-2.16-.28c-1.56,0-3.12.48-3.12,2,0,1.28,1.12,2,2.52,2a5.46,5.46,0,0,0,2.76-.8Z"/><path class="cls-4" d="M133.9,78.26h6v1.8l.08,0a9.64,9.64,0,0,1,6.08-2.28,7.09,7.09,0,0,1,5.16,2c1.2,1.28,1.72,3,1.72,5.84V97.94h-6.08V86.66a3.9,3.9,0,0,0-.68-2.76,2.61,2.61,0,0,0-2.08-.84A7,7,0,0,0,140,84.7V97.94H133.9Z"/><path class="cls-4" d="M169,96.74a9.58,9.58,0,0,1-5.48,1.64,8,8,0,0,1-4.56-1.28,5.37,5.37,0,0,1-2.32-4.6,5.61,5.61,0,0,1,2.4-4.76,9.72,9.72,0,0,1,5.52-1.4,15.81,15.81,0,0,1,3.4.36v-.76a2.77,2.77,0,0,0-.76-2.08,4.52,4.52,0,0,0-3-.84,12.29,12.29,0,0,0-5.76,1.56V79.34a15.65,15.65,0,0,1,6.88-1.52,10.39,10.39,0,0,1,6.56,1.88c1.48,1.2,2.2,3,2.2,5.44v6.68c0,.92.36,1.56,1.2,1.56a2.29,2.29,0,0,0,1-.24V97.7a6.61,6.61,0,0,1-2.92.6,5.76,5.76,0,0,1-4.24-1.56Zm-1-6.52a8,8,0,0,0-2.16-.28c-1.56,0-3.12.48-3.12,2,0,1.28,1.12,2,2.52,2a5.46,5.46,0,0,0,2.76-.8Z"/><path class="cls-4" d="M180.46,83.3h-2.8v-5h2.8V75.34c0-2.76.56-5.12,2.08-6.56a8.07,8.07,0,0,1,5.56-1.84,9.72,9.72,0,0,1,3.36.56v4.92a12.65,12.65,0,0,0-2.64-.36c-1.88,0-2.28,1.2-2.28,2.88v3.32h4.56v5h-4.56V97.94h-6.08Z"/><path class="cls-4" d="M220.14,82.62a7.27,7.27,0,0,1,4.88,7c0,5.2-4.64,8.76-10.92,8.76s-10.92-3.56-10.92-8.76a7.27,7.27,0,0,1,4.88-7v-.08a6.13,6.13,0,0,1-4-5.92c0-4.64,4.36-8.08,10-8.08s10,3.44,10,8.08a6.13,6.13,0,0,1-4,5.92Zm-1.64,6.56a4.42,4.42,0,0,0-8.8,0c0,2.28,1.88,4,4.4,4S218.5,91.46,218.5,89.18Zm-.56-12a3.86,3.86,0,1,0-3.84,3.48A3.59,3.59,0,0,0,217.94,77.18Z"/><path class="cls-4" d="M239.1,78.26h6.08V98.5c0,3.64-.64,5.36-1.8,6.56a8.41,8.41,0,0,1-6,2.12,11.59,11.59,0,0,1-2.76-.32v-5a12.09,12.09,0,0,0,2,.2c2.12,0,2.44-1.16,2.44-3.16Zm3-9.72A3.48,3.48,0,1,1,238.62,72,3.52,3.52,0,0,1,242.14,68.54Z"/><path class="cls-4" d="M263.22,96.06a8.86,8.86,0,0,1-6,2.32,6.92,6.92,0,0,1-5.12-2c-1.28-1.32-1.88-3.12-1.88-6V78.26h6.08v11.2a4,4,0,0,0,.76,2.84,2.81,2.81,0,0,0,2.16.88,6.16,6.16,0,0,0,4-1.76V78.26h6.08V97.94h-6V96.1Z"/><path class="cls-4" d="M274.42,67.38h6.08V97.94h-6.08Z"/><path class="cls-4" d="M288.58,68.54A3.48,3.48,0,1,1,285.06,72,3.52,3.52,0,0,1,288.58,68.54Zm-3,9.72h6.08V97.94h-6.08Z"/><path class="cls-4" d="M309.18,68.54A3.48,3.48,0,1,1,305.66,72,3.52,3.52,0,0,1,309.18,68.54Zm-3,9.72h6.08V97.94h-6.08Z"/><path class="cls-4" d="M317.26,78.26h6v1.8l.08,0a9.64,9.64,0,0,1,6.08-2.28,7.09,7.09,0,0,1,5.16,2c1.2,1.28,1.72,3,1.72,5.84V97.94h-6.08V86.66a3.9,3.9,0,0,0-.68-2.76,2.61,2.61,0,0,0-2.08-.84,7,7,0,0,0-4.12,1.64V97.94h-6.08Z"/></g><g class="cls-3"><path class="cls-4" d="M131.88,146.86a8.81,8.81,0,0,1-5,1.52c-5,0-9.24-3.84-9.24-9.88A10.27,10.27,0,0,1,128,127.82a9.34,9.34,0,0,1,3.72.72l.08,0V117.38h6.08v30.56h-6v-1Zm0-13.24a7.08,7.08,0,0,0-3.16-.76c-3.2,0-4.92,2.4-4.92,5.36s1.68,5.2,4.68,5.2a6.44,6.44,0,0,0,3.4-1Z"/><path class="cls-4" d="M148,139.7c.68,2.72,2.92,4,5.72,4a12.24,12.24,0,0,0,6.68-2.16v5.08a15.11,15.11,0,0,1-7.48,1.8c-6.48,0-11.16-4-11.16-10.2A10.15,10.15,0,0,1,152,127.82c4.84,0,9.4,3.2,9.4,9.8a16.21,16.21,0,0,1-.12,2.08Zm7.88-3.84a3.84,3.84,0,0,0-3.88-3.4,4.07,4.07,0,0,0-4,3.4Z"/><path class="cls-4" d="M172.84,128.26h6.32l2,6.2c.64,2,1.2,3.8,1.72,5.68H183c.56-1.84,1.2-3.8,1.84-5.68l2.12-6.2h4.52l2.08,6.2c.68,2,1.24,3.8,1.8,5.68h.08c.52-1.88,1.08-3.68,1.72-5.68l2-6.2H205l-6.72,19.68H192.6l-1.76-5.24c-.64-1.92-1.24-3.84-1.76-5.64H189c-.52,1.8-1.12,3.64-1.8,5.6l-1.8,5.28h-5.84Z"/><path class="cls-4" d="M211,118.54a3.48,3.48,0,1,1-3.52,3.48A3.52,3.52,0,0,1,211,118.54Zm-3,9.72h6.08v19.68H208Z"/><path class="cls-4" d="M219.12,128.26h6v1.8l.08,0a9.64,9.64,0,0,1,6.08-2.28,7.09,7.09,0,0,1,5.16,2c1.2,1.28,1.72,3,1.72,5.84v12.28h-6.08V136.66a3.9,3.9,0,0,0-.68-2.76,2.61,2.61,0,0,0-2.08-.84,7,7,0,0,0-4.12,1.64v13.24h-6.08Z"/><path class="cls-4" d="M243.12,117.38h6.08v19.2l.08,0,6.88-8.36h6.92l-7.52,8.8,8.08,10.88h-7.2l-7.16-10-.08,0v10h-6.08Z"/><path class="cls-4" d="M269.76,139.7c.68,2.72,2.92,4,5.72,4a12.24,12.24,0,0,0,6.68-2.16v5.08a15.11,15.11,0,0,1-7.48,1.8c-6.48,0-11.16-4-11.16-10.2a10.15,10.15,0,0,1,10.32-10.36c4.84,0,9.4,3.2,9.4,9.8a16.21,16.21,0,0,1-.12,2.08Zm7.88-3.84a3.84,3.84,0,0,0-3.88-3.4,4.07,4.07,0,0,0-4,3.4Z"/><path class="cls-4" d="M287.2,117.38h6.08v30.56H287.2Z"/><path class="cls-4" d="M298.12,119h7l-1.48,19.32H299.6Zm3.52,22.44a3.48,3.48,0,1,1-3.52,3.48A3.52,3.52,0,0,1,301.64,141.42Z"/></g></g></g></g></svg>