<svg xmlns="http://www.w3.org/2000/svg" viewBox="0 0 495.31 115"><defs><style>.cls-1{fill:#864639;}.cls-2{fill:#a5e4ea;}.cls-3{fill:#e4f4f4;}.cls-4{fill:#ff9790;}.cls-5{fill:#062935;}</style></defs><g id="Layer_2" data-name="Layer 2"><g id="Layer_1-2" data-name="Layer 1"><path class="cls-1" d="M16.43,70.13l0,.07.47.17C16.72,70.29,16.58,70.2,16.43,70.13Z"/><path class="cls-1" d="M28.89,68.38c5.49,2,10.34,5.75,13.68,8s7.88,2.52,14.34,3.29c11.93,1.41,28,11.24,28,11.24s13.64,6.47,20.12,2.95l8.42-23c-9.11-1.85-6.6-13.92-6.6-13.92-26.75-2.8-15-24.57-15-24.57-9.92-4.18-11.13-11-9.21-17.49L42.11,0,20.62,58.68l-.41,1.12S20.66,65.37,28.89,68.38Z"/><path class="cls-2" d="M101.11,104.59c-9.3-2.44-15.71,1-18.25,2.79a1.45,1.45,0,0,1-2-.39C69.59,89.64,54.57,94.39,49.88,96.44A1.42,1.42,0,0,1,48,95.58c-3.7-10.63-18.23-13-22.41-13.49a1.41,1.41,0,0,1-1.24-1.21,14.11,14.11,0,0,0-7.45-10.51l-.47-.17L0,115H97.3Z"/><path class="cls-3" d="M106.33,90.35l-1.27,3.47h0c-6.48,3.52-20.12-2.95-20.12-2.95s-16.1-9.83-28-11.24c-6.46-.77-11-1.08-14.34-3.29s-8.19-6-13.68-8c-8.23-3-8.68-8.58-8.68-8.58l.41-1.12.86-2.35C9.8,59.92,9.92,67.83,9.92,67.83a22.41,22.41,0,0,1,6.51,2.3c.15.07.29.16.44.24a14.11,14.11,0,0,1,7.45,10.51,1.41,1.41,0,0,0,1.24,1.21C29.74,82.56,44.27,85,48,95.58a1.42,1.42,0,0,0,1.91.86c4.69-2,19.71-6.8,30.93,10.55a1.45,1.45,0,0,0,2,.39c2.54-1.79,9-5.23,18.25-2.79h0a32.44,32.44,0,0,1,6,2.25A16.93,16.93,0,0,0,106.33,90.35Zm-4.49,12.26.36-1,.72-2-.72,2Z"/><path class="cls-4" d="M143.23,94.86H122.61l23.62-37.92L123.72,20.12h19.85L156,42l11.87-21.85H188.7L166.08,57.05l24.06,37.81H169.85L156.32,71.58Z"/><path class="cls-4" d="M270.32,57.27q0,17.19-9.93,27.78T233.94,95.64q-16.63,0-26.5-10.53t-9.87-27.84q0-17.19,9.92-27.78T233.94,18.9q16.63,0,26.51,10.54T270.32,57.27ZM220.75,40.58q-4.89,6.15-4.88,16.69T220.75,74a17.21,17.21,0,0,0,26.39,0Q252,67.81,252,57.27t-4.88-16.69a17.23,17.23,0,0,0-26.39,0Z"/><path class="cls-5" d="M337.19,91.54q-6.78,4.21-19.52,4.21-16.41,0-27.45-10.59t-11-27.45q0-17.07,10.7-27.83t27.89-10.76q12.64,0,19.41,4.22V39.75a34.75,34.75,0,0,0-18.52-5.1,20.25,20.25,0,0,0-15.09,6.26q-6.09,6.27-6.1,16.8,0,10.32,6.1,16.36t15.75,6.05a29.87,29.87,0,0,0,17.86-5.33Z"/><path class="cls-5" d="M419.91,57.27q0,17.19-9.92,27.78T383.54,95.64q-16.64,0-26.51-10.53t-9.87-27.84q0-17.19,9.93-27.78T383.54,18.9q16.63,0,26.5,10.54T419.91,57.27ZM370.34,40.58q-4.87,6.15-4.88,16.69T370.34,74a17.21,17.21,0,0,0,26.39,0q4.89-6.15,4.88-16.69t-4.88-16.69a17.23,17.23,0,0,0-26.39,0Z"/><path class="cls-5" d="M441.75,94.86H423.9l25-74.74h21.51l24.95,74.74H477l-4.55-15.3H446.3Zm9.43-31.71-.78,2.66h18l-.78-2.66q-3.22-10.87-5.27-18.52t-2.49-9.87l-.45-2.22Q458.5,38.64,451.18,63.15Z"/></g></g></svg>