<svg xmlns="http://www.w3.org/2000/svg" viewBox="0 0 496.7 114.88">
  <defs>
    <style>.cls-1{fill:#FFF;}</style>
  </defs>
  <g id="Layer_2" data-name="Layer 2">
    <g id="Layer_1-2" data-name="Layer 1">
      <path class="cls-1" d="M111.21,83.6l-2.7-3.81,4.11-11.22c-8.82-1.79-6.39-13.47-6.39-13.47-25.9-2.72-14.55-23.8-14.55-23.8-9.61-4-10.78-10.64-8.92-16.93L43.51,0,26.44,46.64,21.6,48.13C8.87,52,5.59,61.06,5.66,65.77l.09,5.78,5.59.76a15,15,0,0,1,4.15,1.49l.28.16.33.2L0,114.88H6.3l1.9-4.79L19.93,80.41a8.07,8.07,0,0,0,6.84,5.75c1.4.15,13.72,1.73,16.11,8.59a8.08,8.08,0,0,0,10.89,4.78A18.3,18.3,0,0,1,61,98c5.79,0,10.58,3.15,14.66,9.63a6.12,6.12,0,0,0,2,2.06c.28.16.57.29.85.42a8.29,8.29,0,0,0,8.39-.63,12.55,12.55,0,0,1,4.43-1.92l-1.13,2.55-2.13,4.79h6.4l3.31-7.39c.4.08.81.17,1.22.28a23.5,23.5,0,0,1,4.52,1.71l6.08,3,2.93-6.11A23.15,23.15,0,0,0,111.21,83.6Zm-10.65,17.65.09-.19a23.79,23.79,0,0,0-6.14-.82A20.09,20.09,0,0,0,83,103.75a1.37,1.37,0,0,1-.81.26,1.39,1.39,0,0,1-1.18-.64c-6.34-9.8-13.93-12.32-20.06-12.32A25.19,25.19,0,0,0,51,93.16a1.32,1.32,0,0,1-.54.12,1.4,1.4,0,0,1-1.31-1c-3.58-10.29-17.65-12.6-21.7-13a1.35,1.35,0,0,1-1.19-1.15,13.66,13.66,0,0,0-7.22-10.2l-.45-.17-.05.11a21.68,21.68,0,0,0-6.23-2.19S12.23,58,23.54,54.55l-.34.94-.49,1.33-.12.34-.28.74h0a4.35,4.35,0,0,0,.09.46c0,.1.05.21.08.33s.05.16.08.25a8,8,0,0,0,.75,1.65A10.24,10.24,0,0,0,25.24,63c.15.15.32.29.49.44a16.31,16.31,0,0,0,5,2.78c.66.25,1.32.52,2,.81,4.5,2,8.45,5,11.28,6.9a11.19,11.19,0,0,0,1.6.87A18.13,18.13,0,0,0,49.35,76c.7.14,1.43.26,2.21.38,1.17.17,2.44.32,3.81.48l.52.06,2,.23C69.4,78.47,85,88,85,88l.09,0h0l.26.12h0l.37.16.06,0,.52.22.11.05.59.24.08,0,.73.29.17.06c.54.21,1.13.42,1.77.64L90,90l1,.32.13,0,1,.28.2.06,1.07.29.2,0,1,.23.15,0q.56.12,1.11.21l.25,0c.76.13,1.52.22,2.27.28l.25,0,1.09,0h.13c.39,0,.76,0,1.13,0H101c.37,0,.74-.09,1.1-.15l.2,0c.34-.08.68-.17,1-.28l.16-.06a7.67,7.67,0,0,0,1-.42l.6-1.65.63-1.71a16.43,16.43,0,0,1,.73,16,31.38,31.38,0,0,0-5.78-2.18Z" />
      <path class="cls-1" d="M144.62,94.72H124l23.62-37.93L125.1,20H145l12.42,21.84L169.24,20h20.85L167.46,56.91l24.07,37.81H171.24L157.71,71.43Z" />
      <path class="cls-1" d="M271.71,57.13q0,17.19-9.93,27.78T235.33,95.5q-16.64,0-26.5-10.54T199,57.13q0-17.19,9.92-27.78t26.45-10.59q16.63,0,26.5,10.53T271.71,57.13ZM222.13,40.44q-4.87,6.15-4.87,16.69t4.87,16.69a17.24,17.24,0,0,0,26.4,0q4.88-6.16,4.88-16.69t-4.88-16.69a17.22,17.22,0,0,0-26.4,0Z" />
      <path class="cls-1" d="M338.57,91.39q-6.76,4.22-19.51,4.22-16.43,0-27.45-10.59t-11-27.45q0-17.07,10.7-27.83T319.17,19q12.63,0,19.4,4.21V39.61a34.73,34.73,0,0,0-18.52-5.11A20.22,20.22,0,0,0,305,40.77q-6.09,6.27-6.1,16.8,0,10.32,6.1,16.36t15.75,6q10.42,0,17.85-5.32Z" />
      <path class="cls-1" d="M421.3,57.13q0,17.19-9.92,27.78T384.93,95.5q-16.64,0-26.51-10.54t-9.87-27.83q0-17.19,9.93-27.78t26.45-10.59q16.63,0,26.5,10.53T421.3,57.13ZM371.73,40.44q-4.87,6.15-4.88,16.69t4.88,16.69a17.23,17.23,0,0,0,26.39,0Q403,67.66,403,57.13t-4.88-16.69a17.21,17.21,0,0,0-26.39,0Z" />
      <path class="cls-1" d="M443.14,94.72H425.29L450.24,20h21.51L496.7,94.72H478.4l-4.54-15.3H447.69ZM452.56,63l-.77,2.67h18L469,63q-3.23-10.86-5.27-18.52t-2.5-9.86l-.44-2.22Q459.89,38.49,452.56,63Z" />
    </g>
  </g>
</svg>