<svg xmlns="http://www.w3.org/2000/svg" viewBox="0 0 630.41 260.47"><defs><style>.cls-1{fill:#fff;}.cls-2{fill:#864639;}.cls-3{fill:#a5e4ea;}.cls-4{fill:#e4f4f4;}.cls-5{fill:#ff9790;}.cls-6{fill:#062935;}</style></defs><g id="Layer_2" data-name="Layer 2"><g id="Layer_1-2" data-name="Layer 1"><g id="Logo"><path id="Logo_Background" data-name="Logo Background" class="cls-1" d="M624.11.09C629,38.64,631.63,81.31,629.85,119c-2.21,49.31,5.11,90.93-135.51,119.26-190.67,34.61-379.42,21.44-438.06,9.68-82.84-25-51.61-131-45.2-247.9C11.38.41,624.2.15,624.11.09Z"/><g id="Logo_MultiColor" data-name="Logo MultiColor"><path id="Path_1" data-name="Path 1" class="cls-2" d="M65,139v.07l.5.18C65.3,139.2,65.15,139.1,65,139Z"/><path id="Path_2" data-name="Path 2" class="cls-2" d="M78.21,137.17c5.82,2.12,11,6.1,14.51,8.49s8.36,2.67,15.21,3.49c12.66,1.5,29.7,11.92,29.7,11.92s14.47,6.87,21.35,3.13l8.93-24.4c-9.66-2-7-14.77-7-14.77C132.53,122.06,145,99,145,99c-10.52-4.44-11.81-11.67-9.77-18.56l-43-15.78-22.8,62.25L69,128.07S69.48,134,78.21,137.17Z"/><path id="Path_3" data-name="Path 3" class="cls-3" d="M154.82,175.59c-9.86-2.59-16.66,1.06-19.36,2.95a1.53,1.53,0,0,1-2.12-.41c-12-18.41-27.89-13.37-32.86-11.19a1.52,1.52,0,0,1-2-.83l0-.08c-3.92-11.28-19.34-13.79-23.77-14.31a1.52,1.52,0,0,1-1.32-1.29,15,15,0,0,0-7.9-11.15l-.5-.18L47.56,186.63H150.78Z"/><path id="Path_4" data-name="Path 4" class="cls-4" d="M160.36,160.48,159,164.15h0c-6.88,3.74-21.35-3.13-21.35-3.13S120.59,150.6,108,149.11c-6.85-.82-11.67-1.15-15.21-3.49s-8.69-6.37-14.51-8.49C69.51,134,69,128,69,128l.44-1.19.91-2.49c-12.42,3.85-12.3,12.24-12.3,12.24A23.53,23.53,0,0,1,65,139c.16.07.31.17.47.25a15,15,0,0,1,7.9,11.15,1.5,1.5,0,0,0,1.31,1.29c4.44.5,19.85,3.08,23.81,14.31a1.5,1.5,0,0,0,1.9,1l.12-.05c5-2.12,20.91-7.21,32.82,11.19a1.54,1.54,0,0,0,2.12.42c2.69-1.9,9.55-5.55,19.36-3h0a34.29,34.29,0,0,1,6.36,2.38,18,18,0,0,0-.8-17.49Zm-4.76,13,.38-1.06.77-2.12-.77,2.12Z"/><path id="Path_5" data-name="Path 5" class="cls-5" d="M199.51,165.26H177.63L202.69,125,178.81,86h21.06l13.19,23.21L225.65,86h22.1l-24,39.15,25.52,40.11H227.75l-14.35-24.7Z"/><path id="Path_6" data-name="Path 6" class="cls-5" d="M334.34,125.38q0,18.24-10.54,29.48t-28.06,11.23q-17.64,0-28.11-11.17t-10.47-29.54q0-18.22,10.52-29.47t28.06-11.23q17.64,0,28.13,11.18T334.34,125.38Zm-52.59-17.7q-5.19,6.52-5.18,17.7t5.18,17.75a18.26,18.26,0,0,0,28,0q5.16-6.57,5.15-17.75t-5.18-17.7A18.28,18.28,0,0,0,284,105.43a19.12,19.12,0,0,0-2.25,2.25Z"/><path id="Path_7" data-name="Path 7" class="cls-6" d="M405.28,161.74q-7.2,4.47-20.71,4.47-17.42,0-29.12-11.24t-11.67-29.12q0-18.1,11.35-29.52t29.59-11.42q13.41,0,20.59,4.48V106.8a36.8,36.8,0,0,0-19.65-5.41,21.52,21.52,0,0,0-16,6.64q-6.47,6.66-6.47,17.83,0,10.94,6.47,17.35t16.71,6.42A31.7,31.7,0,0,0,405.3,144Z"/><path id="Path_8" data-name="Path 8" class="cls-6" d="M493,125.38q0,18.24-10.52,29.48t-28.06,11.23q-17.65,0-28.13-11.17t-10.47-29.54q0-18.22,10.54-29.47t28.06-11.23q17.64,0,28.11,11.18T493,125.38Zm-52.59-17.7q-5.16,6.52-5.17,17.7t5.17,17.75a18.25,18.25,0,0,0,25.72,2.28,17.54,17.54,0,0,0,2.28-2.28q5.19-6.52,5.18-17.7t-5.18-17.71a18.28,18.28,0,0,0-25.75-2.25,19.92,19.92,0,0,0-2.25,2.25Z"/><path id="Path_9" data-name="Path 9" class="cls-6" d="M516.2,165.26H497.27L523.79,86h22.82l26.47,79.29H553.6L548.77,149H521Zm10-33.64-.83,2.82h19.1l-.82-2.82q-3.42-11.53-5.59-19.64t-2.65-10.48l-.47-2.35q-1,6.46-8.73,32.47Z"/></g></g></g></g></svg>